{"accessors":[{"bufferView":0,"byteOffset":0,"componentType":5126,"count":108,"max":[11.0,1.5,8.0],"min":[-11.0,-1.5,-8.0],"normalized":false,"type":"VEC3"},{"bufferView":1,"byteOffset":0,"componentType":5126,"count":108,"max":[0.0,0.0,1.0,1.0],"min":[-1.0,-1.0,-1.0,-1.0],"normalized":false,"type":"VEC4"},{"bufferView":2,"byteOffset":0,"componentType":5126,"count":108,"max":[1.0,1.0,1.0],"min":[-1.0,-1.0,-1.0],"normalized":false,"type":"VEC3"},{"bufferView":3,"byteOffset":0,"componentType":5126,"count":108,"max":[1.0,1.0],"min":[0.0,0.0],"normalized":false,"type":"VEC2"},{"bufferView":4,"byteOffset":0,"componentType":5123,"count":108,"max":[107.0],"min":[0.0],"normalized":false,"type":"SCALAR"},{"bufferView":5,"byteOffset":0,"componentType":5126,"count":36,"max":[6.80000019073486,1.5,5.30000019073486],"min":[1.69999980926514,-1.5,-5.30000019073486],"normalized":false,"type":"VEC3"},{"bufferView":6,"byteOffset":0,"componentType":5126,"count":36,"max":[0.0,0.0,0.0000763009302318096,1.0],"min":[-1.0,-1.0,-1.0,-1.0],"normalized":false,"type":"VEC4"},{"bufferView":7,"byteOffset":0,"componentType":5126,"count":36,"max":[1.0,1.0,1.0],"min":[-1.0,-1.0,-1.0],"normalized":false,"type":"VEC3"},{"bufferView":8,"byteOffset":0,"componentType":5126,"count":36,"max":[1.0,1.0],"min":[0.0,0.0],"normalized":false,"type":"VEC2"},{"bufferView":9,"byteOffset":0,"componentType":5123,"count":36,"max":[35.0],"min":[0.0],"normalized":false,"type":"SCALAR"},{"bufferView":10,"byteOffset":0,"componentType":5126,"count":96,"max":[6.80000019073486,1.5,5.30000019073486],"min":[-6.80000019073486,-1.5,-5.30000019073486],"normalized":false,"type":"VEC3"},{"bufferView":11,"byteOffset":0,"componentType":5126,"count":96,"max":[0.0,0.0,0.0000763009302318096,1.0],"min":[-1.0,-1.0,-1.0,-1.0],"normalized":false,"type":"VEC4"},{"bufferView":12,"byteOffset":0,"componentType":5126,"count":96,"max":[1.0,1.0,1.0],"min":[-1.0,-1.0,-1.0],"normalized":false,"type":"VEC3"},{"bufferView":13,"byteOffset":0,"componentType":5126,"count":96,"max":[1.0,1.0],"min":[0.0,0.0],"normalized":false,"type":"VEC2"},{"bufferView":14,"byteOffset":0,"componentType":5123,"count":96,"max":[95.0],"min":[0.0],"normalized":false,"type":"SCALAR"},{"bufferView":15,"byteOffset":0,"componentType":5126,"count":48,"max":[2.45000004768372,1.5,-1.33333349227905],"min":[-2.45000004768372,-1.5,-8.5],"normalized":false,"type":"VEC3"},{"bufferView":16,"byteOffset":0,"componentType":5126,"count":48,"max":[0.0,0.0,0.0000763009302318096,1.0],"min":[-1.0,-1.0,-1.0,-1.0],"normalized":false,"type":"VEC4"},{"bufferView":17,"byteOffset":0,"componentType":5126,"count":48,"max":[1.0,1.0,1.0],"min":[-1.0,-1.0,-1.0],"normalized":false,"type":"VEC3"},{"bufferView":18,"byteOffset":0,"componentType":5126,"count":48,"max":[1.0,1.0],"min":[0.0,0.0],"normalized":false,"type":"VEC2"},{"bufferView":19,"byteOffset":0,"componentType":5123,"count":48,"max":[47.0],"min":[0.0],"normalized":false,"type":"SCALAR"},{"bufferView":20,"byteOffset":0,"componentType":5126,"count":522,"max":[28.399995803833,4.5,5.84999990463257],"min":[-36.4000015258789,-1.5,-31.8900032043457],"normalized":false,"type":"VEC3"},{"bufferView":21,"byteOffset":0,"componentType":5126,"count":522,"max":[1.0,0.0,1.0,1.0],"min":[-1.0,-1.0,-1.0,1.0],"normalized":false,"type":"VEC4"},{"bufferView":22,"byteOffset":0,"componentType":5126,"count":522,"max":[1.0,1.0,1.0],"min":[-1.0,-1.0,-1.0],"normalized":false,"type":"VEC3"},{"bufferView":23,"byteOffset":0,"componentType":5126,"count":522,"max":[1.0,1.0],"min":[0.0,0.0],"normalized":false,"type":"VEC2"},{"bufferView":24,"byteOffset":0,"componentType":5123,"count":522,"max":[521.0],"min":[0.0],"normalized":false,"type":"SCALAR"}],"asset":{"generator":"Godot Engine v4.4.stable.official@4c311cbee68c0b66ff8ebb8b0defdd9979dd2a41","version":"2.0"},"bufferViews":[{"buffer":0,"byteLength":1296,"byteOffset":0,"byteStride":12,"target":34962},{"buffer":0,"byteLength":1728,"byteOffset":1296,"byteStride":16,"target":34962},{"buffer":0,"byteLength":1296,"byteOffset":3024,"byteStride":12,"target":34962},{"buffer":0,"byteLength":864,"byteOffset":4320,"byteStride":8,"target":34962},{"buffer":0,"byteLength":216,"byteOffset":5184,"target":34963},{"buffer":0,"byteLength":432,"byteOffset":5400,"byteStride":12,"target":34962},{"buffer":0,"byteLength":576,"byteOffset":5832,"byteStride":16,"target":34962},{"buffer":0,"byteLength":432,"byteOffset":6408,"byteStride":12,"target":34962},{"buffer":0,"byteLength":288,"byteOffset":6840,"byteStride":8,"target":34962},{"buffer":0,"byteLength":72,"byteOffset":7128,"target":34963},{"buffer":0,"byteLength":1152,"byteOffset":7200,"byteStride":12,"target":34962},{"buffer":0,"byteLength":1536,"byteOffset":8352,"byteStride":16,"target":34962},{"buffer":0,"byteLength":1152,"byteOffset":9888,"byteStride":12,"target":34962},{"buffer":0,"byteLength":768,"byteOffset":11040,"byteStride":8,"target":34962},{"buffer":0,"byteLength":192,"byteOffset":11808,"target":34963},{"buffer":0,"byteLength":576,"byteOffset":12000,"byteStride":12,"target":34962},{"buffer":0,"byteLength":768,"byteOffset":12576,"byteStride":16,"target":34962},{"buffer":0,"byteLength":576,"byteOffset":13344,"byteStride":12,"target":34962},{"buffer":0,"byteLength":384,"byteOffset":13920,"byteStride":8,"target":34962},{"buffer":0,"byteLength":96,"byteOffset":14304,"target":34963},{"buffer":0,"byteLength":6264,"byteOffset":14400,"byteStride":12,"target":34962},{"buffer":0,"byteLength":8352,"byteOffset":20664,"byteStride":16,"target":34962},{"buffer":0,"byteLength":6264,"byteOffset":29016,"byteStride":12,"target":34962},{"buffer":0,"byteLength":4176,"byteOffset":35280,"byteStride":8,"target":34962},{"buffer":0,"byteLength":1044,"byteOffset":39456,"target":34963}],"buffers":[{"byteLength":40500,"uri":"main_level0.bin"}],"extensions":{"KHR_lights_punctual":{"lights":[{"type":"directional"}]}},"extensionsUsed":["GODOT_single_root","KHR_lights_punctual"],"images":[{"uri":"textures%2F_albedo000.png"}],"materials":[{"extensions":{},"pbrMetallicRoughness":{"baseColorFactor":[1.0,1.0,1.0,1.0],"baseColorTexture":{"index":0},"metallicFactor":0.0,"roughnessFactor":1.0}}],"meshes":[{"extras":{"targetNames":[]},"primitives":[{"attributes":{"NORMAL":2,"POSITION":0,"TANGENT":1,"TEXCOORD_0":3},"indices":4,"material":0,"mode":4}]},{"extras":{"targetNames":[]},"primitives":[{"attributes":{"NORMAL":7,"POSITION":5,"TANGENT":6,"TEXCOORD_0":8},"indices":9,"material":0,"mode":4}]},{"extras":{"targetNames":[]},"primitives":[{"attributes":{"NORMAL":12,"POSITION":10,"TANGENT":11,"TEXCOORD_0":13},"indices":14,"material":0,"mode":4}]},{"extras":{"targetNames":[]},"primitives":[{"attributes":{"NORMAL":17,"POSITION":15,"TANGENT":16,"TEXCOORD_0":18},"indices":19,"material":0,"mode":4}]},{"extras":{"targetNames":[]},"primitives":[{"attributes":{"NORMAL":22,"POSITION":20,"TANGENT":21,"TEXCOORD_0":23},"indices":24,"material":0,"mode":4}]}],"nodes":[{"children":[1,2,3,6,8,10,12,23],"name":"MainLevel"},{"name":"WorldEnvironment"},{"extensions":{"KHR_lights_punctual":{"light":0}},"name":"DirectionalLight3D","rotation":[-0.129410728812218,0.836515307426453,0.482963681221008,0.22414530813694]},{"children":[4,5],"mesh":0,"name":"Overhang2","translation":[-21.6000003814697,1.5,11.1999998092651]},{"name":"Overhang22","translation":[4.69999885559082,0.0,3.0]},{"name":"Corridor6","rotation":[0.0,0.70710676908493,0.0,0.70710676908493],"translation":[-4.19999885559082,-0.25,-9.04999923706055]},{"children":[7],"mesh":1,"name":"Overhang24","translation":[-25.3999996185303,1.5,-4.69999980926514]},{"name":"Overhang3","translation":[-5.10000038146973,0.0,0.0]},{"children":[9],"mesh":2,"name":"Overhang33","scale":[2.0,1.0,1.79999995231628],"translation":[1.39999997615814,1.5,-9.0]},{"name":"Overhang4","translation":[-0.149999558925629,0.0,-0.0500030517578125]},{"children":[11],"mesh":3,"name":"Overhang43","scale":[2.0,1.0,1.79999995231628],"translation":[27.7000007629395,1.5,-0.560000002384186]},{"name":"Overhang5","translation":[0.0500001907348633,0.0,7.16666650772095]},{"children":[13],"mesh":4,"name":"Room2","translation":[4.20000028610229,1.5,13.3500003814697]},{"children":[14,15,16,17,18,19,20,21,22],"name":"CSGCombiner3D"},{"name":"Room22","translation":[-24.8000011444092,1.5,-2.15000057220459]},{"name":"Corridor","translation":[-9.99999904632568,-0.25,0.300000190734863]},{"name":"Corridor2","rotation":[0.0,0.70710676908493,0.0,0.70710676908493],"translation":[-30.0,-0.25,-11.6999998092651]},{"name":"Corridor3","translation":[-19.8999996185303,2.75,-17.8000011444092]},{"name":"Corridor4","rotation":[0.0,-0.70710676908493,0.0,0.70710676908493],"translation":[-11.8999996185303,2.75,-9.80000114440918]},{"name":"Corridor5","rotation":[0.0,1.0,0.0,0.0000000437113882867379],"translation":[14.6000003814697,2.75,-23.5]},{"name":"Room3","translation":[-29.6000022888184,1.5,-18.0500011444092]},{"name":"Room4","scale":[2.0,1.0,1.79999995231628],"translation":[-2.80000185966492,1.5,-22.3500022888184]},{"name":"Room5","scale":[2.0,1.0,1.79999995231628],"translation":[23.4999961853027,1.5,-13.9100027084351]},{"name":"Sprite3D","scale":[2.42799997329712,2.73399996757507,2.40000009536743],"translation":[-0.100000001490116,0.100000001490116,0.100000001490116]}],"samplers":[{"magFilter":9729,"minFilter":9987,"wrapS":10497,"wrapT":10497}],"scene":0,"scenes":[{"nodes":[0]}],"textures":[{"sampler":0,"source":0}]}